<?xml version="1.0" encoding="UTF-8" standalone="no"?>
<!-- Created with Inkscape (http://www.inkscape.org/) -->

<svg
   width="290mm"
   height="45mm"
   viewBox="0 0 1096.0632 170.07862"
   version="1.1"
   id="svg1"
   inkscape:version="1.3.2 (091e20ef0f, 2023-11-25)"
   sodipodi:docname="Logo.svg"
   inkscape:export-filename="Logo-long.png"
   inkscape:export-xdpi="96"
   inkscape:export-ydpi="96"
   xmlns:inkscape="http://www.inkscape.org/namespaces/inkscape"
   xmlns:sodipodi="http://sodipodi.sourceforge.net/DTD/sodipodi-0.dtd"
   xmlns="http://www.w3.org/2000/svg"
   xmlns:svg="http://www.w3.org/2000/svg">
  <sodipodi:namedview
     id="namedview1"
     pagecolor="#ffffff"
     bordercolor="#000000"
     borderopacity="0.25"
     inkscape:showpageshadow="2"
     inkscape:pageopacity="0.0"
     inkscape:pagecheckerboard="0"
     inkscape:deskcolor="#d1d1d1"
     inkscape:document-units="mm"
     showguides="true"
     inkscape:zoom="1.9301984"
     inkscape:cx="140.40007"
     inkscape:cy="87.555765"
     inkscape:window-width="1920"
     inkscape:window-height="975"
     inkscape:window-x="1920"
     inkscape:window-y="32"
     inkscape:window-maximized="1"
     inkscape:current-layer="layer1" />
  <defs
     id="defs1" />
  <g
     inkscape:label="Layer 1"
     inkscape:groupmode="layer"
     id="layer1">
    <rect
       style="font-variation-settings:'wght' 700;fill:#67ea94;stroke:#000000;stroke-width:0.711311;stroke-opacity:0"
       id="rect1"
       width="1095.7993"
       height="169.93523"
       x="-0.0072888485"
       y="0.14572126" />
    <path
       style="font-size:32px;line-height:33.9999px;font-family:Sans;-inkscape-font-specification:'Sans, @wght=700';font-variation-settings:'wght' 700;letter-spacing:1.2px;word-spacing:0px;white-space:pre;shape-padding:0.177056;fill:#2c2d3c;fill-opacity:1;stroke:#000000;stroke-width:4.09366;stroke-opacity:0"
       d="m 1075.6982,119.17651 h -16.9343 V 84.212863 h -31.7379 v 34.963647 h -16.9343 V 38.124492 h 16.9343 V 69.90955 h 31.7379 V 38.124492 h 16.9343 z"
       id="path91" />
    <path
       style="font-size:32px;line-height:33.9999px;font-family:Sans;-inkscape-font-specification:'Sans, @wght=700';font-variation-settings:'wght' 700;letter-spacing:1.2px;word-spacing:0px;white-space:pre;shape-padding:0.177056;fill:#2c2d3c;fill-opacity:1;stroke:#000000;stroke-width:4.09366;stroke-opacity:0"
       d="m 991.30677,96.699879 q 0,7.151641 -3.47658,12.486971 -3.4765,5.33539 -10.09328,8.28688 -6.50463,2.83794 -15.92506,2.83794 -4.14946,0 -8.18674,-0.5676 -3.92522,-0.56756 -7.62609,-1.58921 -3.58879,-1.13522 -6.84108,-2.72452 V 99.424273 q 5.71961,2.497437 11.77554,4.654327 6.16821,2.04326 12.22415,2.04326 4.1495,0 6.61679,-1.13517 2.57938,-1.13517 3.70088,-3.06498 1.23362,-1.929807 1.23362,-4.427192 0,-3.064995 -2.13081,-5.221881 -2.01869,-2.156805 -5.49525,-3.973102 -3.47662,-1.929867 -7.96251,-4.086672 -2.80372,-1.362207 -6.05602,-3.178544 -3.25232,-1.929807 -6.2803,-4.654241 -2.91578,-2.837985 -4.82237,-6.811057 -1.90651,-3.973162 -1.90651,-9.535521 0,-7.265217 3.25231,-12.373517 3.36447,-5.22187 9.42036,-7.946274 6.16823,-2.724455 14.46718,-2.724455 6.2803,0 11.88767,1.475787 5.71959,1.475758 11.8877,4.200122 l -5.49522,13.395164 q -5.49529,-2.270345 -9.86908,-3.519053 -4.37379,-1.248708 -8.97182,-1.248708 -3.14014,0 -5.38309,1.021658 -2.24298,1.021689 -3.47664,2.837945 -1.12149,1.816337 -1.12149,4.313701 0,2.837975 1.68224,4.881281 1.6822,1.929837 5.04663,3.746143 3.36453,1.816256 8.41112,4.313692 6.16817,2.951403 10.42978,6.130008 4.37379,3.178433 6.72888,7.492145 2.35509,4.313773 2.35509,10.67074 z"
       id="path90" />
    <g
       id="g3"
       transform="translate(-3.999999,-1.9999995)">
      <rect
         style="font-variation-settings:'wght' 700;fill:#2c2d3c;fill-opacity:1;stroke:#000000;stroke-width:2.75446;stroke-opacity:0"
         id="rect7"
         width="86.374916"
         height="22.66605"
         x="-649.21637"
         y="-927.39246"
         ry="11.333025"
         transform="matrix(-0.30777264,0.95145993,-0.69641405,-0.71764021,0,0)" />
      <g
         id="g1">
        <rect
           style="font-variation-settings:'wght' 700;fill:#2c2d3c;fill-opacity:1;stroke:#000000;stroke-width:2.76519;stroke-opacity:0"
           id="rect5"
           width="86.517021"
           height="22.805256"
           x="694.49481"
           y="-881.7182"
           ry="11.402628"
           transform="matrix(0.31320943,0.94968408,-0.70333325,0.71086028,0,0)" />
        <rect
           style="font-variation-settings:'wght' 700;fill:#2c2d3c;fill-opacity:1;stroke:#000000;stroke-width:2.5993;stroke-opacity:0"
           id="rect8"
           width="86.075172"
           height="20.254831"
           x="-659.78833"
           y="-919.37463"
           ry="10.127416"
           transform="matrix(-0.29061516,0.95684002,-0.67351445,-0.73917406,0,0)" />
      </g>
    </g>
    <path
       style="font-size:32px;line-height:33.9999px;font-family:Sans;-inkscape-font-specification:'Sans, @wght=700';font-variation-settings:'wght' 700;letter-spacing:1.2px;word-spacing:0px;white-space:pre;shape-padding:0.177056;fill:#2c2d3c;fill-opacity:1;stroke:#000000;stroke-width:4.09365;stroke-opacity:0"
       d="m 712.22642,38.124502 q 10.87835,0 17.94367,2.724405 7.06532,2.610904 10.54192,8.059784 3.47661,5.335309 3.47661,13.508634 0,5.562429 -2.13085,9.762611 -2.01864,4.086652 -5.49521,7.038167 -3.36444,2.837884 -7.28966,4.654211 l 23.5511,35.304216 h -18.84083 l -19.0652,-31.104065 h -9.08399 V 119.17653 H 688.89966 V 38.124502 Z"
       id="path86" />
    <path
       style="font-size:32px;line-height:33.9999px;font-family:Sans;-inkscape-font-specification:'Sans, @wght=700';font-variation-settings:'wght' 700;letter-spacing:1.2px;word-spacing:0px;white-space:pre;shape-padding:0.177056;fill:#67ea94;fill-opacity:1;stroke:#000000;stroke-width:4.09365;stroke-opacity:0"
       d="m 710.99279,52.200694 h -5.15881 v 21.909079 h 5.49525 q 8.41115,0 11.99985,-2.837985 3.70088,-2.837944 3.70088,-8.400334 0,-3.859632 -1.79441,-6.129988 -1.6822,-2.383885 -5.2709,-3.405543 -3.47665,-1.135229 -8.97186,-1.135229 z"
       id="path87" />
    <path
       style="font-size:32px;line-height:33.9999px;font-family:Sans;-inkscape-font-specification:'Sans, @wght=700';font-variation-settings:'wght' 700;letter-spacing:1.2px;word-spacing:0px;white-space:pre;shape-padding:0.177056;fill:#2c2d3c;fill-opacity:1;stroke:#000000;stroke-width:4.09366;stroke-opacity:0"
       d="M 607.59235,38.124492 580.34037,119.17651 H 561.83596 L 534.69611,38.124492 h 17.15872 l 15.02776,48.245176 q 0.44856,1.248769 1.23363,4.654251 0.89725,3.292064 1.79435,7.038187 0.89724,3.632564 1.23368,6.129954 0.33644,-2.49739 1.12144,-6.129954 0.8972,-3.746123 1.79434,-7.038187 0.89723,-3.405482 1.23367,-4.654251 l 15.14001,-48.245176 z"
       id="path84" />
    <path
       style="font-size:32px;line-height:33.9999px;font-family:Sans;-inkscape-font-specification:'Sans, @wght=700';font-variation-settings:'wght' 700;letter-spacing:1.2px;word-spacing:0px;white-space:pre;shape-padding:0.177056;fill:#2c2d3c;fill-opacity:1;stroke:#000000;stroke-width:4.09366;stroke-opacity:0"
       d="M 520.39729,119.17651 H 498.86491 L 463.98688,57.876613 h -0.44864 q 0.22477,3.859603 0.33644,7.719246 0.22441,3.859622 0.33643,7.719225 0.22477,3.859642 0.33644,7.719235 V 119.17651 H 449.40754 V 38.124492 h 21.42031 l 34.76591,60.732273 h 0.33643 q -0.1123,-3.746224 -0.22477,-7.492266 -0.1123,-3.746062 -0.33643,-7.378716 -0.11231,-3.746062 -0.22477,-7.492165 V 38.124492 h 15.25216 z"
       id="path83" />
    <g
       id="g81"
       transform="matrix(1.1623361,0,0,0.9810604,-29.31716,-63.729299)"
       style="fill:#2c2d3c;fill-opacity:1">
      <rect
         style="font-variation-settings:'wght' 700;fill:#2c2d3c;fill-opacity:1;stroke:#000000;stroke-width:0.95052;stroke-linejoin:round;stroke-opacity:0"
         id="rect79"
         width="16.368288"
         height="82.955261"
         x="65.934578"
         y="275.81473"
         transform="matrix(0.62193315,-0.78307034,0.83176601,0.55512639,0,0)"
         ry="8.4052172" />
      <rect
         style="font-variation-settings:'wght' 700;fill:#2c2d3c;fill-opacity:1;stroke:#000000;stroke-width:1.00561;stroke-linejoin:round;stroke-opacity:0"
         id="rect80"
         width="17.939285"
         height="84.719383"
         x="317.65262"
         y="137.96133"
         transform="matrix(0.53329254,0.84593089,0.76539569,-0.64355997,0,0)"
         ry="8.5839624" />
      <rect
         style="font-variation-settings:'wght' 700;fill:#2c2d3c;fill-opacity:1;stroke:#000000;stroke-width:1.14521;stroke-linejoin:round;stroke-opacity:0"
         id="rect81"
         width="19.560665"
         height="100.7665"
         x="273.11002"
         y="92.490944"
         ry="10.209896" />
    </g>
    <g
       id="g100"
       transform="matrix(3.55645,0,0,3.5999026,44.288443,-775.086)"
       style="fill:#2c2d3c;fill-opacity:1">
      <rect
         style="font-variation-settings:'wght' 700;fill:#2c2d3c;fill-opacity:1;stroke:#000000;stroke-width:0.472088;stroke-opacity:0"
         id="rect92"
         width="12.972345"
         height="4.4332027"
         x="95.321861"
         y="226.09515"
         ry="2.2166014" />
      <rect
         style="font-variation-settings:'wght' 700;fill:#2c2d3c;fill-opacity:1;stroke:#000000;stroke-width:0.472805;stroke-opacity:0"
         id="rect93"
         width="12.971628"
         height="4.4469223"
         x="95.161499"
         y="235.18416"
         ry="2.2234612" />
      <rect
         style="font-variation-settings:'wght' 700;fill:#2c2d3c;fill-opacity:1;stroke:#000000;stroke-width:0.45378;stroke-opacity:0"
         id="rect94"
         width="12.990653"
         height="4.0902486"
         x="95.312714"
         y="245.03223"
         ry="2.0451243" />
    </g>
    <g
       id="g102"
       transform="matrix(3.55645,0,0,3.5999026,283.70521,-774.66454)"
       style="fill:#2c2d3c;fill-opacity:1">
      <rect
         style="font-variation-settings:'wght' 700;fill:#2c2d3c;fill-opacity:1;stroke:#000000;stroke-width:0.472088;stroke-opacity:0"
         id="rect100"
         width="12.972345"
         height="4.4332027"
         x="95.321861"
         y="226.09515"
         ry="2.2166014" />
      <rect
         style="font-variation-settings:'wght' 700;fill:#2c2d3c;fill-opacity:1;stroke:#000000;stroke-width:0.472805;stroke-opacity:0"
         id="rect101"
         width="12.971628"
         height="4.4469223"
         x="95.161499"
         y="235.18416"
         ry="2.2234612" />
      <rect
         style="font-variation-settings:'wght' 700;fill:#2c2d3c;fill-opacity:1;stroke:#000000;stroke-width:0.45378;stroke-opacity:0"
         id="rect102"
         width="12.990653"
         height="4.0902486"
         x="95.312714"
         y="245.03223"
         ry="2.0451243" />
    </g>
    <g
       id="g105"
       transform="matrix(3.55645,0,0,3.5999026,538.98394,-774.71252)"
       style="fill:#2c2d3c;fill-opacity:1">
      <rect
         style="font-variation-settings:'wght' 700;fill:#2c2d3c;fill-opacity:1;stroke:#000000;stroke-width:0.472088;stroke-opacity:0"
         id="rect103"
         width="12.972345"
         height="4.4332027"
         x="95.321861"
         y="226.09515"
         ry="2.2166014" />
      <rect
         style="font-variation-settings:'wght' 700;fill:#2c2d3c;fill-opacity:1;stroke:#000000;stroke-width:0.472805;stroke-opacity:0"
         id="rect104"
         width="12.971628"
         height="4.4469223"
         x="95.161499"
         y="235.18416"
         ry="2.2234612" />
      <rect
         style="font-variation-settings:'wght' 700;fill:#2c2d3c;fill-opacity:1;stroke:#000000;stroke-width:0.45378;stroke-opacity:0"
         id="rect105"
         width="12.990653"
         height="4.0902486"
         x="95.312714"
         y="245.03223"
         ry="2.0451243" />
    </g>
    <rect
       style="font-variation-settings:'wght' 700;fill:#2c2d3c;fill-opacity:1;stroke:#000000;stroke-width:1.161;stroke-opacity:0"
       id="rect2"
       width="221.88223"
       height="110.35353"
       x="26.924109"
       y="24.258667"
       ry="28.335545" />
    <g
       id="g71"
       transform="matrix(0.73774756,0,0,0.78485892,-18.362233,-33.4343)"
       style="fill:#67ea94;fill-opacity:1">
      <rect
         style="font-variation-settings:'wght' 700;fill:#67ea94;fill-opacity:1;stroke:#000000;stroke-width:0.95052;stroke-linejoin:round;stroke-opacity:0"
         id="rect69"
         width="16.368288"
         height="82.955261"
         x="65.934578"
         y="275.81473"
         transform="matrix(0.62193315,-0.78307034,0.83176601,0.55512639,0,0)"
         ry="8.4052172" />
      <rect
         style="font-variation-settings:'wght' 700;fill:#67ea94;fill-opacity:1;stroke:#000000;stroke-width:1.00561;stroke-linejoin:round;stroke-opacity:0"
         id="rect70"
         width="17.939285"
         height="84.719383"
         x="317.65262"
         y="137.96133"
         transform="matrix(0.53329254,0.84593089,0.76539569,-0.64355997,0,0)"
         ry="8.5839624" />
      <rect
         style="font-variation-settings:'wght' 700;fill:#67ea94;fill-opacity:1;stroke:#000000;stroke-width:1.14521;stroke-linejoin:round;stroke-opacity:0"
         id="rect71"
         width="19.560665"
         height="100.7665"
         x="273.11002"
         y="92.490944"
         ry="10.209896" />
    </g>
    <rect
       style="font-variation-settings:'wght' 700;fill:#2c2d3c;fill-opacity:1;stroke:#000000;stroke-width:1.08349;stroke-opacity:0"
       id="rect72"
       width="22.65167"
       height="22.844055"
       x="179.03236"
       y="64.259483" />
    <g
       id="g67"
       transform="matrix(0.73774756,0,0,0.78485892,-65.784981,-33.4343)"
       style="fill:#67ea94;fill-opacity:1">
      <rect
         style="font-variation-settings:'wght' 700;fill:#67ea94;fill-opacity:1;stroke:#000000;stroke-width:0.95052;stroke-linejoin:round;stroke-opacity:0"
         id="rect65"
         width="16.368288"
         height="82.955261"
         x="65.934578"
         y="275.81473"
         transform="matrix(0.62193315,-0.78307034,0.83176601,0.55512639,0,0)"
         ry="8.4052172" />
      <rect
         style="font-variation-settings:'wght' 700;fill:#67ea94;fill-opacity:1;stroke:#000000;stroke-width:1.00561;stroke-linejoin:round;stroke-opacity:0"
         id="rect66"
         width="17.939285"
         height="84.719383"
         x="317.65262"
         y="137.96133"
         transform="matrix(0.53329254,0.84593089,0.76539569,-0.64355997,0,0)"
         ry="8.5839624" />
      <rect
         style="font-variation-settings:'wght' 700;fill:#67ea94;fill-opacity:1;stroke:#000000;stroke-width:1.14521;stroke-linejoin:round;stroke-opacity:0"
         id="rect67"
         width="19.560665"
         height="100.7665"
         x="273.11002"
         y="92.490944"
         ry="10.209896" />
    </g>
    <rect
       style="font-variation-settings:'wght' 700;fill:#2c2d3c;fill-opacity:1;stroke:#000000;stroke-width:1.1067;stroke-opacity:0"
       id="rect68"
       width="23.65653"
       height="22.820845"
       x="131.6212"
       y="64.271088" />
    <g
       id="g63"
       transform="matrix(0.73774756,0,0,0.78485892,-113.20773,-33.4343)"
       style="fill:#67ea94;fill-opacity:1">
      <rect
         style="font-variation-settings:'wght' 700;fill:#67ea94;fill-opacity:1;stroke:#000000;stroke-width:0.95052;stroke-linejoin:round;stroke-opacity:0"
         id="rect61"
         width="16.368288"
         height="82.955261"
         x="65.934578"
         y="275.81473"
         transform="matrix(0.62193315,-0.78307034,0.83176601,0.55512639,0,0)"
         ry="8.4052172" />
      <rect
         style="font-variation-settings:'wght' 700;fill:#67ea94;fill-opacity:1;stroke:#000000;stroke-width:1.00561;stroke-linejoin:round;stroke-opacity:0"
         id="rect62"
         width="17.939285"
         height="84.719383"
         x="317.65262"
         y="137.96133"
         transform="matrix(0.53329254,0.84593089,0.76539569,-0.64355997,0,0)"
         ry="8.5839624" />
      <rect
         style="font-variation-settings:'wght' 700;fill:#67ea94;fill-opacity:1;stroke:#000000;stroke-width:1.14521;stroke-linejoin:round;stroke-opacity:0"
         id="rect63"
         width="19.560665"
         height="100.7665"
         x="273.11002"
         y="92.490944"
         ry="10.209896" />
    </g>
    <rect
       style="font-variation-settings:'wght' 700;fill:#2c2d3c;fill-opacity:1;stroke:#000000;stroke-width:1.08522;stroke-opacity:0"
       id="rect64"
       width="22.72546"
       height="22.842333"
       x="84.187721"
       y="64.260345" />
    <g
       id="g60"
       transform="matrix(0.73774756,0,0,0.78485892,-160.63047,-33.4343)"
       style="fill:#67ea94;fill-opacity:1">
      <rect
         style="font-variation-settings:'wght' 700;fill:#67ea94;fill-opacity:1;stroke:#000000;stroke-width:0.95052;stroke-linejoin:round;stroke-opacity:0"
         id="rect54"
         width="16.368288"
         height="82.955261"
         x="65.934578"
         y="275.81473"
         transform="matrix(0.62193315,-0.78307034,0.83176601,0.55512639,0,0)"
         ry="8.4052172" />
      <rect
         style="font-variation-settings:'wght' 700;fill:#67ea94;fill-opacity:1;stroke:#000000;stroke-width:1.00561;stroke-linejoin:round;stroke-opacity:0"
         id="rect55"
         width="17.939285"
         height="84.719383"
         x="317.65262"
         y="137.96133"
         transform="matrix(0.53329254,0.84593089,0.76539569,-0.64355997,0,0)"
         ry="8.5839624" />
      <rect
         style="font-variation-settings:'wght' 700;fill:#67ea94;fill-opacity:1;stroke:#000000;stroke-width:1.14521;stroke-linejoin:round;stroke-opacity:0"
         id="rect60"
         width="19.560665"
         height="100.7665"
         x="273.11002"
         y="92.490944"
         ry="10.209896" />
    </g>
  </g>
</svg>
