<?xml version="1.0" encoding="UTF-8" standalone="no"?>
<svg
   width="41"
   height="41"
   viewBox="0 0 41 41"
   fill="none"
   version="1.1"
   id="svg4"
   sodipodi:docname="icon.svg"
   xml:space="preserve"
   inkscape:version="1.3.2 (091e20ef0f, 2023-11-25)"
   xmlns:inkscape="http://www.inkscape.org/namespaces/inkscape"
   xmlns:sodipodi="http://sodipodi.sourceforge.net/DTD/sodipodi-0.dtd"
   xmlns="http://www.w3.org/2000/svg"
   xmlns:svg="http://www.w3.org/2000/svg"><sodipodi:namedview
     id="namedview4"
     pagecolor="#ffffff"
     bordercolor="#000000"
     borderopacity="0.25"
     inkscape:showpageshadow="2"
     inkscape:pageopacity="0.0"
     inkscape:pagecheckerboard="0"
     inkscape:deskcolor="#d1d1d1"
     inkscape:zoom="9.3414634"
     inkscape:cx="19.16188"
     inkscape:cy="32.86423"
     inkscape:window-width="1920"
     inkscape:window-height="975"
     inkscape:window-x="1920"
     inkscape:window-y="32"
     inkscape:window-maximized="1"
     inkscape:current-layer="svg4" /><defs
     id="defs4"><clipPath
       id="clip0_1_2"><rect
         width="40.686"
         height="40.686"
         fill="white"
         id="rect4" /></clipPath><rect
       x="21.209856"
       y="231.7755"
       width="248.48335"
       height="53.00893"
       id="rect22" /><rect
       x="39.244452"
       y="254.20337"
       width="455.9623"
       height="114.84342"
       id="rect21" /></defs><g
     id="g4"
     transform="matrix(0.08034079,0,0,0.08034079,-0.02895707,-8.1895126e-4)"><g
       inkscape:label="Layer 1"
       id="layer1"><rect
         style="font-variation-settings:'wght' 700;fill:#67ea94;fill-opacity:1;stroke:#000000;stroke-width:1.16344;stroke-opacity:0"
         id="rect6"
         width="511.76981"
         height="510.86096"
         x="0.12572332"
         y="0.49658871" /></g><g
       id="layer2"
       inkscape:label="Layer 2"><text
         xml:space="preserve"
         id="text20"
         style="font-size:13.3333px;line-height:14.1666px;font-family:Monospace;-inkscape-font-specification:'Monospace, @wght=700';font-variation-settings:'wght' 700;letter-spacing:1.2px;word-spacing:0px;white-space:pre;shape-inside:url(#rect21);display:inline;fill:#000000;stroke:#000000;stroke-width:1.161;stroke-opacity:0" /><g
         id="g106"
         transform="matrix(1.9096359,0,0,1.9096359,-86.823669,-103.37319)"><g
           id="g72"
           transform="translate(124)"><g
             id="g71"
             transform="matrix(0.9645234,0,0,0.97870273,-152.06968,10.138813)"
             style="fill:#2c2d3c;fill-opacity:1"><rect
               style="font-variation-settings:'wght' 700;fill:#2c2d3c;fill-opacity:1;stroke:#000000;stroke-width:0.95052;stroke-linejoin:round;stroke-opacity:0"
               id="rect69"
               width="16.368288"
               height="82.955261"
               x="65.934578"
               y="275.81473"
               transform="matrix(0.62193315,-0.78307034,0.83176601,0.55512639,0,0)"
               ry="8.4052172" /><rect
               style="font-variation-settings:'wght' 700;fill:#2c2d3c;fill-opacity:1;stroke:#000000;stroke-width:1.00561;stroke-linejoin:round;stroke-opacity:0"
               id="rect70"
               width="17.939285"
               height="84.719383"
               x="317.65262"
               y="137.96133"
               transform="matrix(0.53329254,0.84593089,0.76539569,-0.64355997,0,0)"
               ry="8.5839624" /><rect
               style="font-variation-settings:'wght' 700;fill:#2c2d3c;fill-opacity:1;stroke:#000000;stroke-width:1.14521;stroke-linejoin:round;stroke-opacity:0"
               id="rect71"
               width="19.560665"
               height="100.7665"
               x="273.11002"
               y="92.490944"
               ry="10.209896" /></g><rect
             style="font-variation-settings:'wght' 700;fill:#67ea94;fill-opacity:1;stroke:#000000;stroke-width:1.2784;stroke-opacity:0"
             id="rect72"
             width="25.197563"
             height="28.588642"
             x="105.94815"
             y="131.90964" /></g><g
           id="g68"
           transform="translate(62)"><g
             id="g67"
             transform="matrix(0.9645234,0,0,0.97870273,-152.06968,10.138813)"
             style="fill:#2c2d3c;fill-opacity:1"><rect
               style="font-variation-settings:'wght' 700;fill:#2c2d3c;fill-opacity:1;stroke:#000000;stroke-width:0.95052;stroke-linejoin:round;stroke-opacity:0"
               id="rect65"
               width="16.368288"
               height="82.955261"
               x="65.934578"
               y="275.81473"
               transform="matrix(0.62193315,-0.78307034,0.83176601,0.55512639,0,0)"
               ry="8.4052172" /><rect
               style="font-variation-settings:'wght' 700;fill:#2c2d3c;fill-opacity:1;stroke:#000000;stroke-width:1.00561;stroke-linejoin:round;stroke-opacity:0"
               id="rect66"
               width="17.939285"
               height="84.719383"
               x="317.65262"
               y="137.96133"
               transform="matrix(0.53329254,0.84593089,0.76539569,-0.64355997,0,0)"
               ry="8.5839624" /><rect
               style="font-variation-settings:'wght' 700;fill:#2c2d3c;fill-opacity:1;stroke:#000000;stroke-width:1.14521;stroke-linejoin:round;stroke-opacity:0"
               id="rect67"
               width="19.560665"
               height="100.7665"
               x="273.11002"
               y="92.490944"
               ry="10.209896" /></g><rect
             style="font-variation-settings:'wght' 700;fill:#67ea94;fill-opacity:1;stroke:#000000;stroke-width:1.2784;stroke-opacity:0"
             id="rect68"
             width="25.197563"
             height="28.588642"
             x="105.94815"
             y="131.90964" /></g><g
           id="g64"><g
             id="g63"
             transform="matrix(0.9645234,0,0,0.97870273,-152.06968,10.138813)"
             style="fill:#2c2d3c;fill-opacity:1"><rect
               style="font-variation-settings:'wght' 700;fill:#2c2d3c;fill-opacity:1;stroke:#000000;stroke-width:0.95052;stroke-linejoin:round;stroke-opacity:0"
               id="rect61"
               width="16.368288"
               height="82.955261"
               x="65.934578"
               y="275.81473"
               transform="matrix(0.62193315,-0.78307034,0.83176601,0.55512639,0,0)"
               ry="8.4052172" /><rect
               style="font-variation-settings:'wght' 700;fill:#2c2d3c;fill-opacity:1;stroke:#000000;stroke-width:1.00561;stroke-linejoin:round;stroke-opacity:0"
               id="rect62"
               width="17.939285"
               height="84.719383"
               x="317.65262"
               y="137.96133"
               transform="matrix(0.53329254,0.84593089,0.76539569,-0.64355997,0,0)"
               ry="8.5839624" /><rect
               style="font-variation-settings:'wght' 700;fill:#2c2d3c;fill-opacity:1;stroke:#000000;stroke-width:1.14521;stroke-linejoin:round;stroke-opacity:0"
               id="rect63"
               width="19.560665"
               height="100.7665"
               x="273.11002"
               y="92.490944"
               ry="10.209896" /></g><rect
             style="font-variation-settings:'wght' 700;fill:#67ea94;fill-opacity:1;stroke:#000000;stroke-width:1.2784;stroke-opacity:0"
             id="rect64"
             width="25.197563"
             height="28.588642"
             x="105.94815"
             y="131.90964" /></g><g
           id="g60"
           transform="matrix(0.9645234,0,0,0.97870273,-214.06968,10.138813)"><rect
             style="font-variation-settings:'wght' 700;fill:#2c2d3c;fill-opacity:1;stroke:#000000;stroke-width:0.95052;stroke-linejoin:round;stroke-opacity:0"
             id="rect54"
             width="16.368288"
             height="82.955261"
             x="65.934578"
             y="275.81473"
             transform="matrix(0.62193315,-0.78307034,0.83176601,0.55512639,0,0)"
             ry="8.4052172" /><rect
             style="font-variation-settings:'wght' 700;fill:#2c2d3c;fill-opacity:1;stroke:#000000;stroke-width:1.00561;stroke-linejoin:round;stroke-opacity:0"
             id="rect55"
             width="17.939285"
             height="84.719383"
             x="317.65262"
             y="137.96133"
             transform="matrix(0.53329254,0.84593089,0.76539569,-0.64355997,0,0)"
             ry="8.5839624" /><rect
             style="font-variation-settings:'wght' 700;fill:#2c2d3c;fill-opacity:1;stroke:#000000;stroke-width:1.14521;stroke-linejoin:round;stroke-opacity:0"
             id="rect60"
             width="19.560665"
             height="100.7665"
             x="273.11002"
             y="92.490944"
             ry="10.209896" /></g></g><rect
         style="font-variation-settings:'wght' 700;fill:#2c2d3c;fill-opacity:1;stroke:#000000;stroke-width:2.47192;stroke-opacity:0"
         id="rect73"
         width="515.21906"
         height="168.95444"
         x="-2.7441685"
         y="343.9126"
         ry="0" /><path
         style="font-size:32px;line-height:33.9999px;font-family:Sans;-inkscape-font-specification:'Sans, @wght=700';font-variation-settings:'wght' 700;letter-spacing:1.2px;word-spacing:0px;white-space:pre;shape-padding:0.177056;fill:#67ea94;fill-opacity:1;stroke:#000000;stroke-width:2.18478;stroke-opacity:0"
         d="m 467.94013,443.4037 h -9.0929 v -18.54712 h -17.04167 v 18.54712 h -9.0929 v -42.99556 h 9.0929 v 16.86098 h 17.04167 v -16.86098 h 9.0929 z"
         id="path91" /><path
         style="font-size:32px;line-height:33.9999px;font-family:Sans;-inkscape-font-specification:'Sans, @wght=700';font-variation-settings:'wght' 700;letter-spacing:1.2px;word-spacing:0px;white-space:pre;shape-padding:0.177056;fill:#67ea94;fill-opacity:1;stroke:#000000;stroke-width:2.18478;stroke-opacity:0"
         d="m 422.62613,431.48055 q 0,3.79372 -1.86676,6.62395 -1.86671,2.83026 -5.41959,4.39593 -3.49266,1.50544 -8.55096,1.50544 -2.22805,0 -4.39587,-0.30109 -2.10765,-0.30108 -4.09483,-0.84303 -1.927,-0.6022 -3.67332,-1.44527 v -8.49072 q 3.07115,1.32481 6.32288,2.46897 3.31202,1.08389 6.56376,1.08389 2.22807,0 3.55288,-0.60217 1.385,-0.60218 1.98719,-1.62588 0.66239,-1.0237 0.66239,-2.34849 0,-1.62588 -1.14414,-2.77004 -1.08393,-1.14412 -2.95067,-2.10761 -1.86677,-1.02373 -4.27547,-2.16785 -1.50546,-0.72261 -3.25178,-1.68612 -1.74633,-1.0237 -3.37221,-2.46893 -1.56563,-1.50546 -2.58937,-3.61305 -1.0237,-2.10764 -1.0237,-5.0583 0,-3.85397 1.74633,-6.56376 1.80655,-2.77004 5.05826,-4.21525 3.31203,-1.44524 7.76815,-1.44524 3.37221,0 6.38309,0.78286 3.07113,0.78284 6.38311,2.22803 l -2.95067,7.10572 q -2.9507,-1.20435 -5.2992,-1.86675 -2.34851,-0.6624 -4.81742,-0.6624 -1.6861,0 -2.89045,0.54196 -1.20437,0.54197 -1.86678,1.50544 -0.60219,0.96351 -0.60219,2.28828 0,1.50546 0.90328,2.58937 0.90326,1.02372 2.70979,1.98721 1.80658,0.96347 4.51635,2.28828 3.312,1.56563 5.60027,3.25178 2.34851,1.68606 3.61307,3.97435 1.26458,2.28832 1.26458,5.66049 z"
         id="path90" /><g
         id="g91"
         transform="matrix(1.9096359,0,0,1.9096359,-85.875398,-30.974638)"><path
           style="font-size:32px;line-height:33.9999px;font-family:Sans;-inkscape-font-specification:'Sans, @wght=700';font-variation-settings:'wght' 700;letter-spacing:1.2px;word-spacing:0px;white-space:pre;shape-padding:0.177056;fill:#67ea94;fill-opacity:1;stroke:#000000;stroke-width:1.14408;stroke-opacity:0"
           d="m 187.81031,225.89792 q 3.05877,0 5.04539,0.7568 1.98662,0.72527 2.96417,2.23889 0.97755,1.48207 0.97755,3.7525 0,1.54516 -0.59915,2.71191 -0.5676,1.13521 -1.54514,1.9551 -0.94601,0.78832 -2.0497,1.29287 l 6.62208,9.80699 h -5.29765 l -5.36074,-8.64025 h -2.55423 v 8.64025 h -4.76158 v -22.51506 z"
           id="path86" /><path
           style="font-size:32px;line-height:33.9999px;font-family:Sans;-inkscape-font-specification:'Sans, @wght=700';font-variation-settings:'wght' 700;letter-spacing:1.2px;word-spacing:0px;white-space:pre;shape-padding:0.177056;fill:#2c2d3c;fill-opacity:1;stroke:#000000;stroke-width:1.14408;stroke-opacity:0"
           d="m 187.46344,229.80808 h -1.45055 v 6.08602 h 1.54515 q 2.36504,0 3.37411,-0.78835 1.04061,-0.78834 1.04061,-2.33349 0,-1.07215 -0.50455,-1.70282 -0.473,-0.66221 -1.48207,-0.94601 -0.97756,-0.31535 -2.5227,-0.31535 z"
           id="path87" /></g><path
         style="font-size:32px;line-height:33.9999px;font-family:Sans;-inkscape-font-specification:'Sans, @wght=700';font-variation-settings:'wght' 700;letter-spacing:1.2px;word-spacing:0px;white-space:pre;shape-padding:0.177056;fill:#67ea94;fill-opacity:1;stroke:#000000;stroke-width:2.18478;stroke-opacity:0"
         d="M 216.59065,400.40814 201.9577,443.4037 h -9.93595 l -14.57274,-42.99556 h 9.21338 l 8.06915,25.59256 q 0.24086,0.66243 0.6624,2.46893 0.48178,1.74634 0.96348,3.73354 0.48177,1.92696 0.66242,3.25175 0.18065,-1.32479 0.60216,-3.25175 0.48175,-1.9872 0.96347,-3.73354 0.48177,-1.8065 0.66242,-2.46893 l 8.12943,-25.59256 z"
         id="path84" /><path
         style="font-size:32px;line-height:33.9999px;font-family:Sans;-inkscape-font-specification:'Sans, @wght=700';font-variation-settings:'wght' 700;letter-spacing:1.2px;word-spacing:0px;white-space:pre;shape-padding:0.177056;fill:#67ea94;fill-opacity:1;stroke:#000000;stroke-width:2.18478;stroke-opacity:0"
         d="m 169.77126,443.4037 h -11.56181 l -18.72776,-32.51768 h -0.2409 q 0.12069,2.0474 0.18065,4.09482 0.1205,2.04741 0.18065,4.09481 0.12069,2.04742 0.18065,4.09481 v 20.23324 h -8.12943 v -42.99556 h 11.50164 l 18.66755,32.21657 h 0.18065 q -0.0603,-1.98725 -0.12069,-3.97441 -0.0603,-1.98717 -0.18065,-3.91418 -0.0603,-1.98717 -0.12069,-3.97436 v -20.35362 h 8.18965 z"
         id="path83" /><g
         id="g81"
         transform="matrix(0.62411642,0,0,0.52042191,-125.39793,346.37788)"
         style="fill:#67ea94;fill-opacity:1"><rect
           style="font-variation-settings:'wght' 700;fill:#67ea94;fill-opacity:1;stroke:#000000;stroke-width:0.95052;stroke-linejoin:round;stroke-opacity:0"
           id="rect79"
           width="16.368288"
           height="82.955261"
           x="65.934578"
           y="275.81473"
           transform="matrix(0.62193315,-0.78307034,0.83176601,0.55512639,0,0)"
           ry="8.4052172" /><rect
           style="font-variation-settings:'wght' 700;fill:#67ea94;fill-opacity:1;stroke:#000000;stroke-width:1.00561;stroke-linejoin:round;stroke-opacity:0"
           id="rect80"
           width="17.939285"
           height="84.719383"
           x="317.65262"
           y="137.96133"
           transform="matrix(0.53329254,0.84593089,0.76539569,-0.64355997,0,0)"
           ry="8.5839624" /><rect
           style="font-variation-settings:'wght' 700;fill:#67ea94;fill-opacity:1;stroke:#000000;stroke-width:1.14521;stroke-linejoin:round;stroke-opacity:0"
           id="rect81"
           width="19.560665"
           height="100.7665"
           x="273.11002"
           y="92.490944"
           ry="10.209896" /></g><g
         id="g100"
         transform="matrix(1.9096359,0,0,1.9096359,-85.875398,-30.974638)"><rect
           style="font-variation-settings:'wght' 700;fill:#67ea94;fill-opacity:1;stroke:#000000;stroke-width:0.472088;stroke-opacity:0"
           id="rect92"
           width="12.972345"
           height="4.4332027"
           x="95.321861"
           y="226.09515"
           ry="2.2166014" /><rect
           style="font-variation-settings:'wght' 700;fill:#67ea94;fill-opacity:1;stroke:#000000;stroke-width:0.472805;stroke-opacity:0"
           id="rect93"
           width="12.971628"
           height="4.4469223"
           x="95.161499"
           y="235.18416"
           ry="2.2234612" /><rect
           style="font-variation-settings:'wght' 700;fill:#67ea94;fill-opacity:1;stroke:#000000;stroke-width:0.45378;stroke-opacity:0"
           id="rect94"
           width="12.990653"
           height="4.0902486"
           x="95.312714"
           y="245.03223"
           ry="2.0451243" /></g><g
         id="g102"
         transform="matrix(1.9096359,0,0,1.9096359,42.679437,-30.751068)"><rect
           style="font-variation-settings:'wght' 700;fill:#67ea94;fill-opacity:1;stroke:#000000;stroke-width:0.472088;stroke-opacity:0"
           id="rect100"
           width="12.972345"
           height="4.4332027"
           x="95.321861"
           y="226.09515"
           ry="2.2166014" /><rect
           style="font-variation-settings:'wght' 700;fill:#67ea94;fill-opacity:1;stroke:#000000;stroke-width:0.472805;stroke-opacity:0"
           id="rect101"
           width="12.971628"
           height="4.4469223"
           x="95.161499"
           y="235.18416"
           ry="2.2234612" /><rect
           style="font-variation-settings:'wght' 700;fill:#67ea94;fill-opacity:1;stroke:#000000;stroke-width:0.45378;stroke-opacity:0"
           id="rect102"
           width="12.990653"
           height="4.0902486"
           x="95.312714"
           y="245.03223"
           ry="2.0451243" /></g><g
         id="g105"
         transform="matrix(1.9096359,0,0,1.9096359,179.75136,-30.776518)"><rect
           style="font-variation-settings:'wght' 700;fill:#67ea94;fill-opacity:1;stroke:#000000;stroke-width:0.472088;stroke-opacity:0"
           id="rect103"
           width="12.972345"
           height="4.4332027"
           x="95.321861"
           y="226.09515"
           ry="2.2166014" /><rect
           style="font-variation-settings:'wght' 700;fill:#67ea94;fill-opacity:1;stroke:#000000;stroke-width:0.472805;stroke-opacity:0"
           id="rect104"
           width="12.971628"
           height="4.4469223"
           x="95.161499"
           y="235.18416"
           ry="2.2234612" /><rect
           style="font-variation-settings:'wght' 700;fill:#67ea94;fill-opacity:1;stroke:#000000;stroke-width:0.45378;stroke-opacity:0"
           id="rect105"
           width="12.990653"
           height="4.0902486"
           x="95.312714"
           y="245.03223"
           ry="2.0451243" /></g><g
         id="g1"
         transform="translate(-6.2317249,-58.155568)"><rect
           style="font-variation-settings:'wght' 700;fill:#67ea94;fill-opacity:1;stroke:#000000;stroke-width:1.44245;stroke-opacity:0"
           id="rect5"
           width="45.435886"
           height="11.816495"
           x="643.09399"
           y="-217.51274"
           ry="5.9082475"
           transform="matrix(0.30360545,0.95279784,-0.69100252,0.72285235,0,0)" /><rect
           style="font-variation-settings:'wght' 700;fill:#67ea94;fill-opacity:1;stroke:#000000;stroke-width:1.43717;stroke-opacity:0"
           id="rect7"
           width="45.366386"
           height="11.748276"
           x="71.153954"
           y="-542.18878"
           ry="5.8741379"
           transform="matrix(-0.29830166,0.95447164,-0.68397685,-0.72950371,0,0)" /><rect
           style="font-variation-settings:'wght' 700;fill:#67ea94;fill-opacity:1;stroke:#000000;stroke-width:1.35718;stroke-opacity:0"
           id="rect8"
           width="45.224483"
           height="10.509805"
           x="71.305656"
           y="-526.59192"
           ry="5.2549024"
           transform="matrix(-0.28157543,0.9595391,-0.6607742,-0.75058474,0,0)" /></g></g></g></svg>
